<svg xmlns="http://www.w3.org/2000/svg" viewBox="0 0 500 500"><g id="freepik--Plants--inject-532"><path d="M277.66,475.14a65.5,65.5,0,0,0,24.36-9.6,86.6,86.6,0,0,0,19.66-17.15,115.46,115.46,0,0,0,7.82-10.48c1.13-1.87,2.36-3.67,3.4-5.6l1.6-2.85,1.49-2.91c1-1.93,1.88-3.94,2.82-5.92s1.69-4,2.54-6,1.53-4.1,2.26-6.16l2-6.27a311.07,311.07,0,0,0,12.05-51.3c1.31-8.7,2.25-17.47,2.74-26.27.28-4.39.42-8.8.47-13.21s-.06-8.83-.39-13.24A176.46,176.46,0,0,1,362,324.65c-.06,2.21-.08,4.43-.19,6.65l-.36,6.64c-.37,4.42-.71,8.84-1.3,13.24s-1.21,8.8-1.91,13.18c-.33,2.19-.82,4.36-1.23,6.54s-.8,4.37-1.33,6.53l-1.54,6.48-.79,3.23-.9,3.21-1.79,6.42c-.58,2.14-1.34,4.23-2,6.35a145.93,145.93,0,0,1-10,24.78l-1.57,3-1.7,2.9c-1.09,1.95-2.38,3.78-3.57,5.67A105.42,105.42,0,0,1,323.52,450a84.09,84.09,0,0,1-20.72,16.86,73.81,73.81,0,0,1-12.17,5.48A50.78,50.78,0,0,1,277.66,475.14Z" style="fill:#455a64"></path><path d="M391.33,379.81a53.74,53.74,0,0,1-6.68,2.84q-3.37,1.2-6.79,2.17c-2.27.66-4.56,1.26-6.85,1.83l-7,1.63a23.08,23.08,0,0,1,6.18-4,45.65,45.65,0,0,1,6.81-2.51,55.23,55.23,0,0,1,7.06-1.55A37.45,37.45,0,0,1,391.33,379.81Z" style="fill:#455a64"></path><path d="M344,411.75c2.74-3.93,5.56-7.73,8.43-11.51,1.4-1.91,2.87-3.77,4.29-5.66L361,389c2.88-3.75,5.84-7.45,8.78-11.16s5.92-7.41,9.12-11a116.38,116.38,0,0,1-7.13,12.42c-2.59,4-5.37,7.88-8.29,11.65s-6,7.41-9.24,10.91A104.12,104.12,0,0,1,344,411.75Z" style="fill:#455a64"></path><path d="M357.65,359.59c2.22-4.63,4.57-9.15,6.94-13.65l3.56-6.74c.58-1.13,1.2-2.23,1.8-3.35l1.76-3.38c1.19-2.23,2.37-4.47,3.52-6.73l1.75-3.38c.55-1.14,1.12-2.26,1.71-3.39,2.24-4.54,4.44-9.1,6.55-13.79A76.88,76.88,0,0,1,380.93,320a142.42,142.42,0,0,1-6.45,14c-2.4,4.52-5,8.95-7.78,13.24A122.92,122.92,0,0,1,357.65,359.59Z" style="fill:#455a64"></path><path d="M401,315.45c-2.37,1.92-4.81,3.64-7.24,5.34s-4.89,3.35-7.34,5l-7.33,4.94-7.38,5.07a35.22,35.22,0,0,1,5.83-7,59.18,59.18,0,0,1,7.13-5.63,68.54,68.54,0,0,1,7.85-4.49A45.87,45.87,0,0,1,401,315.45Z" style="fill:#455a64"></path><path d="M344,355.41a52.75,52.75,0,0,1,4,8.35,74.15,74.15,0,0,1,2.71,8.81,54.27,54.27,0,0,1,1.4,9.18c0,.78,0,1.56,0,2.34s-.09,1.58-.15,2.36a22.72,22.72,0,0,1-.42,2.33,13.56,13.56,0,0,1-.82,2.21v-1.17a7,7,0,0,0,0-1.12c-.11-.76-.11-1.49-.26-2.23l-.36-2.21c-.16-.74-.31-1.47-.44-2.2-.63-2.92-1.32-5.84-2-8.77s-1.39-5.87-2-8.83S344.33,358.5,344,355.41Z" style="fill:#455a64"></path><path d="M336.94,371.86a8.46,8.46,0,0,1,3.88-.58,11.89,11.89,0,0,1,3.76.9,11.15,11.15,0,0,1,3.27,2.08,8.16,8.16,0,0,1,2.25,3.23,32.56,32.56,0,0,1-3.56-1.14c-1.09-.42-2.13-.83-3.18-1.27s-2.08-.91-3.14-1.41A30.38,30.38,0,0,1,336.94,371.86Z" style="fill:#455a64"></path><path d="M333.12,320.78s20.68,13.66,11.57,38.79C344.69,359.57,325.32,344.16,333.12,320.78Z" style="fill:#455a64"></path><path d="M300.74,361.15s22.73-9.9,38.84,11.44C339.58,372.59,316.1,380.44,300.74,361.15Z" style="fill:#455a64"></path><path d="M359.67,266.85s16.33,18.64.9,40.47C360.57,307.32,346,287.33,359.67,266.85Z" style="fill:#455a64"></path><path d="M395.13,274.58s9.29,23-12.46,38.52C382.67,313.1,375.44,289.42,395.13,274.58Z" style="fill:#455a64"></path><path d="M432.36,302.6s-11.29,22.07-37.28,15.79C395.08,318.39,408.25,297.43,432.36,302.6Z" style="fill:#455a64"></path><path d="M394.73,336.61s5,24.27-19.18,35.65C375.55,372.26,372.7,347.66,394.73,336.61Z" style="fill:#455a64"></path><path d="M422.2,363.54S411.88,386.08,385.64,381C385.64,381,397.89,359.43,422.2,363.54Z" style="fill:#455a64"></path><path d="M222.34,475.14a65.5,65.5,0,0,1-24.36-9.6,86.6,86.6,0,0,1-19.66-17.15,115.46,115.46,0,0,1-7.82-10.48c-1.13-1.87-2.36-3.67-3.4-5.6l-1.6-2.85L164,426.55c-1-1.93-1.88-3.94-2.82-5.92s-1.69-4-2.54-6-1.53-4.1-2.26-6.16l-2-6.27a311.07,311.07,0,0,1-12.05-51.3c-1.31-8.7-2.25-17.47-2.74-26.27-.28-4.39-.42-8.8-.47-13.21s.06-8.83.39-13.24A176.46,176.46,0,0,0,138,324.65c.06,2.21.08,4.43.19,6.65l.36,6.64c.37,4.42.71,8.84,1.3,13.24s1.21,8.8,1.91,13.18c.33,2.19.82,4.36,1.23,6.54s.8,4.37,1.33,6.53l1.54,6.48.79,3.23.9,3.21,1.79,6.42c.58,2.14,1.34,4.23,2,6.35a145.93,145.93,0,0,0,10,24.78l1.57,3,1.7,2.9c1.09,1.95,2.38,3.78,3.57,5.67A105.42,105.42,0,0,0,176.48,450a84.09,84.09,0,0,0,20.72,16.86,73.81,73.81,0,0,0,12.17,5.48A50.78,50.78,0,0,0,222.34,475.14Z" style="fill:#455a64"></path><path d="M108.67,379.81a53.74,53.74,0,0,0,6.68,2.84q3.38,1.2,6.79,2.17c2.27.66,4.56,1.26,6.85,1.83l7,1.63a23.08,23.08,0,0,0-6.18-4,45.65,45.65,0,0,0-6.81-2.51,55.23,55.23,0,0,0-7.06-1.55A37.45,37.45,0,0,0,108.67,379.81Z" style="fill:#455a64"></path><path d="M156,411.75c-2.74-3.93-5.56-7.73-8.43-11.51-1.4-1.91-2.87-3.77-4.29-5.66L139,389c-2.88-3.75-5.84-7.45-8.78-11.16s-5.92-7.41-9.12-11a116.38,116.38,0,0,0,7.13,12.42c2.59,4,5.37,7.88,8.29,11.65s6,7.41,9.24,10.91A104.12,104.12,0,0,0,156,411.75Z" style="fill:#455a64"></path><path d="M142.35,359.59c-2.22-4.63-4.57-9.15-6.94-13.65l-3.56-6.74c-.58-1.13-1.2-2.23-1.8-3.35l-1.76-3.38c-1.19-2.23-2.37-4.47-3.52-6.73L123,322.36c-.55-1.14-1.12-2.26-1.71-3.39-2.24-4.54-4.44-9.1-6.55-13.79A76.88,76.88,0,0,0,119.07,320a142.42,142.42,0,0,0,6.45,14c2.4,4.52,5,8.95,7.78,13.24A122.92,122.92,0,0,0,142.35,359.59Z" style="fill:#455a64"></path><path d="M99,315.45c2.37,1.92,4.81,3.64,7.24,5.34s4.89,3.35,7.34,5l7.33,4.94,7.38,5.07a35.22,35.22,0,0,0-5.83-7,59.18,59.18,0,0,0-7.13-5.63,68.54,68.54,0,0,0-7.85-4.49A45.87,45.87,0,0,0,99,315.45Z" style="fill:#455a64"></path><path d="M156.05,355.41a52.75,52.75,0,0,0-4,8.35,74.15,74.15,0,0,0-2.71,8.81,54.27,54.27,0,0,0-1.4,9.18c0,.78,0,1.56,0,2.34s.09,1.58.15,2.36a22.72,22.72,0,0,0,.42,2.33,13.56,13.56,0,0,0,.82,2.21v-1.17a7,7,0,0,1,0-1.12c.11-.76.11-1.49.26-2.23l.36-2.21c.16-.74.31-1.47.44-2.2.63-2.92,1.32-5.84,2-8.77s1.39-5.87,2-8.83S155.67,358.5,156.05,355.41Z" style="fill:#455a64"></path><path d="M163.06,371.86a8.46,8.46,0,0,0-3.88-.58,11.89,11.89,0,0,0-3.76.9,11.15,11.15,0,0,0-3.27,2.08,8.16,8.16,0,0,0-2.25,3.23,32.56,32.56,0,0,0,3.56-1.14c1.09-.42,2.13-.83,3.18-1.27s2.08-.91,3.14-1.41A30.38,30.38,0,0,0,163.06,371.86Z" style="fill:#455a64"></path><path d="M166.88,320.78s-20.68,13.66-11.57,38.79C155.31,359.57,174.68,344.16,166.88,320.78Z" style="fill:#455a64"></path><path d="M199.26,361.15s-22.73-9.9-38.84,11.44C160.42,372.59,183.9,380.44,199.26,361.15Z" style="fill:#455a64"></path><path d="M140.33,266.85s-16.33,18.64-.9,40.47C139.43,307.32,154,287.33,140.33,266.85Z" style="fill:#455a64"></path><path d="M104.87,274.58s-9.29,23,12.46,38.52C117.33,313.1,124.56,289.42,104.87,274.58Z" style="fill:#455a64"></path><path d="M67.64,302.6s11.29,22.07,37.28,15.79C104.92,318.39,91.75,297.43,67.64,302.6Z" style="fill:#455a64"></path><path d="M105.27,336.61s-5,24.27,19.18,35.65C124.45,372.26,127.3,347.66,105.27,336.61Z" style="fill:#455a64"></path><path d="M77.8,363.54S88.12,386.08,114.36,381C114.36,381,102.11,359.43,77.8,363.54Z" style="fill:#455a64"></path></g><g id="freepik--Cactus--inject-532"><path d="M269.29,55.16c-1.43,9.6-10.57,22.44-19.23,22.44s-17.81-12.84-19.24-22.44,5-19.36,8.56-21.28,17.8-1.91,21.36,0S270.71,45.58,269.29,55.16Z" style="fill:#00CDC9"></path><path d="M269.29,55.16c-1.43,9.6-10.57,22.44-19.23,22.44s-17.81-12.84-19.24-22.44,5-19.36,8.56-21.28,17.8-1.91,21.36,0S270.71,45.58,269.29,55.16Z" style="opacity:0.2"></path><path d="M242.42,77.61C237.29,81,229.83,75.4,225.1,71.3s-12.69-19.73-10.79-25.4c2.93-8.71,24.36-15.77,28.89-6.2,3.37,7.14-.58,20.48,2.19,26.94S244.14,76.48,242.42,77.61Z" style="fill:#00CDC9"></path><path d="M242.42,77.61C237.29,81,229.83,75.4,225.1,71.3s-12.69-19.73-10.79-25.4c2.93-8.71,24.36-15.77,28.89-6.2,3.37,7.14-.58,20.48,2.19,26.94S244.14,76.48,242.42,77.61Z" style="opacity:0.15"></path><path d="M257.69,77.61C262.83,81,270.29,75.4,275,71.3s12.69-19.73,10.78-25.4c-2.93-8.71-24.36-15.77-28.89-6.2-3.37,7.14.58,20.48-2.18,26.94S256,76.48,257.69,77.61Z" style="fill:#00CDC9"></path><path d="M257.69,77.61C262.83,81,270.29,75.4,275,71.3s12.69-19.73,10.78-25.4c-2.93-8.71-24.36-15.77-28.89-6.2-3.37,7.14.58,20.48-2.18,26.94S256,76.48,257.69,77.61Z" style="opacity:0.15"></path><path d="M244.75,81.47c-2.34,5.7-17.11,3.4-23.33,2.66s-17.43-5.72-19-11.48c-2.48-8.84,7.14-27.42,16.27-22.05,6.8,4,11,17.26,17,21S245.53,79.57,244.75,81.47Z" style="fill:#00CDC9"></path><path d="M244.75,81.47c-2.34,5.7-17.11,3.4-23.33,2.66s-17.43-5.72-19-11.48c-2.48-8.84,7.14-27.42,16.27-22.05,6.8,4,11,17.26,17,21S245.53,79.57,244.75,81.47Z" style="opacity:0.1"></path><path d="M255.25,81.47c2.34,5.7,17.11,3.4,23.33,2.66S296,78.41,297.63,72.65c2.48-8.84-7.14-27.42-16.27-22.05-6.8,4-11,17.26-17,21S254.47,79.57,255.25,81.47Z" style="fill:#00CDC9"></path><path d="M255.25,81.47c2.34,5.7,17.11,3.4,23.33,2.66S296,78.41,297.63,72.65c2.48-8.84-7.14-27.42-16.27-22.05-6.8,4-11,17.26-17,21S254.47,79.57,255.25,81.47Z" style="opacity:0.1"></path><path d="M281.12,63.34c-2.3,9.6-17.06,22.44-31.06,22.44S221.3,72.94,219,63.34,227.05,44,232.8,42.06s12.08,1.41,17.26,1.41,11.51-3.32,17.25-1.41S283.42,53.76,281.12,63.34Z" style="fill:#00CDC9"></path><path d="M168.36,256.49c-1.31,3.62-2.47,8.88-8.56,8.72s-13.15-11.35-14.3-26-3-32.21-18.09-33.29c0,0-3.29-3.91-10.53-3.57A18,18,0,0,0,105,208.14a22.16,22.16,0,0,0-12.83,15.13c-2.63,11.35-.29,39.59,11.68,63.15,10.85,21.38,27.13,41.28,70.71,28Z" style="fill:#00CDC9"></path><path d="M168.36,256.49c-1.31,3.62-2.47,8.88-8.56,8.72s-13.15-11.35-14.3-26-3-32.21-18.09-33.29c0,0-3.29-3.91-10.53-3.57A18,18,0,0,0,105,208.14a22.16,22.16,0,0,0-12.83,15.13c-2.63,11.35-.29,39.59,11.68,63.15,10.85,21.38,27.13,41.28,70.71,28Z" style="fill:#fff;opacity:0.4"></path><path d="M154.16,274.36c-10.86-15.54-12.61-31.62-13.27-47.93-.54-13.37-8-18.84-13.48-20.5,15.12,1.08,16.93,18.66,18.08,33.3s8.23,25.81,14.31,26,7.25-5.1,8.56-8.72l6.24,57.89a91,91,0,0,1-23.27,4.27C172.37,311.39,166.19,291.59,154.16,274.36Z" style="fill:#00CDC9;opacity:0.5"></path><path d="M105.14,208.25C98,217.42,99.81,233.1,101.23,244a97.36,97.36,0,0,0,11.24,35.45c5.9,10.58,13.71,20.93,25.09,25.69,11.37,5,24.3,3.14,36-.32l.1.28c-14.4,7-32.56,8.68-45.75-1.92-15.38-12.14-20.52-31.92-26.73-49.57-3.41-11-5-22.84-2.49-34.13a25.19,25.19,0,0,1,4.56-9.77c.52-.61,1.15-1.13,1.71-1.69l.2.22Z" style="fill:#00CDC9"></path><path d="M127.46,205.79c6.32,2,7.87,9.74,8.91,15.45,1.07,6,.44,12.1.87,18.09.64,7.9,3.18,15.66,6.07,22.95,2.88,6.77,7.4,14.05,15.53,13.92a27,27,0,0,0,11.3-2.55l.16.25a22.06,22.06,0,0,1-11.38,4.66c-14.39,1.33-19.49-15.82-21.07-27.14-.88-7-2.25-17-3.35-23.9-1.19-6.7-.92-17.48-7.15-21.45l.11-.28Z" style="fill:#00CDC9"></path><path d="M142.07,298a15.62,15.62,0,0,1,3.38,2.2,25.53,25.53,0,0,1,2.78,2.72,24,24,0,0,1,2.34,3.12,15.27,15.27,0,0,1,1.73,3.64,15.62,15.62,0,0,1-3.38-2.2,25.16,25.16,0,0,1-5.11-5.84A15.48,15.48,0,0,1,142.07,298Z" style="fill:#00CDC9"></path><path d="M145.87,294.14a15.48,15.48,0,0,1,4,.66,25,25,0,0,1,7,3.29,15.32,15.32,0,0,1,3.05,2.63,15.56,15.56,0,0,1-4-.65,24.14,24.14,0,0,1-3.64-1.38,23.62,23.62,0,0,1-3.39-1.92A16,16,0,0,1,145.87,294.14Z" style="fill:#00CDC9"></path><path d="M89.43,276.33a15.91,15.91,0,0,1,2.76-2.95,25,25,0,0,1,3.16-2.27,23.06,23.06,0,0,1,3.47-1.76,15.19,15.19,0,0,1,3.89-1.08,15.54,15.54,0,0,1-2.75,3,25.2,25.2,0,0,1-6.64,4A15.6,15.6,0,0,1,89.43,276.33Z" style="fill:#00CDC9"></path><path d="M130,222.22a41.85,41.85,0,0,1,4.06,5.52c.63.94,1.17,1.93,1.75,2.89s1.1,2,1.62,3l-2.33-.22c.7-.88,1.41-1.76,2.15-2.61s1.47-1.7,2.27-2.51a42.78,42.78,0,0,1,5-4.63,42.82,42.82,0,0,1-3.33,6c-.6,1-1.28,1.86-1.91,2.79s-1.34,1.82-2,2.7l-1.34,1.72-1-1.94c-.51-1-1-2-1.48-3s-.93-2.05-1.34-3.11A42.74,42.74,0,0,1,130,222.22Z" style="fill:#00CDC9"></path><g style="opacity:0.1"><path d="M105.14,208.25C98,217.42,99.81,233.1,101.23,244a97.36,97.36,0,0,0,11.24,35.45c5.9,10.58,13.71,20.93,25.09,25.69,11.37,5,24.3,3.14,36-.32l.1.28c-14.4,7-32.56,8.68-45.75-1.92-15.38-12.14-20.52-31.92-26.73-49.57-3.41-11-5-22.84-2.49-34.13a25.19,25.19,0,0,1,4.56-9.77c.52-.61,1.15-1.13,1.71-1.69l.2.22Z"></path><path d="M127.46,205.79c6.32,2,7.87,9.74,8.91,15.45,1.07,6,.44,12.1.87,18.09.64,7.9,3.18,15.66,6.07,22.95,2.88,6.77,7.4,14.05,15.53,13.92a27,27,0,0,0,11.3-2.55l.16.25a22.06,22.06,0,0,1-11.38,4.66c-14.39,1.33-19.49-15.82-21.07-27.14-.88-7-2.25-17-3.35-23.9-1.19-6.7-.92-17.48-7.15-21.45l.11-.28Z"></path><path d="M142.07,298a15.62,15.62,0,0,1,3.38,2.2,25.53,25.53,0,0,1,2.78,2.72,24,24,0,0,1,2.34,3.12,15.27,15.27,0,0,1,1.73,3.64,15.62,15.62,0,0,1-3.38-2.2,25.16,25.16,0,0,1-5.11-5.84A15.48,15.48,0,0,1,142.07,298Z"></path><path d="M145.87,294.14a15.48,15.48,0,0,1,4,.66,25,25,0,0,1,7,3.29,15.32,15.32,0,0,1,3.05,2.63,15.56,15.56,0,0,1-4-.65,24.14,24.14,0,0,1-3.64-1.38,23.62,23.62,0,0,1-3.39-1.92A16,16,0,0,1,145.87,294.14Z"></path><path d="M89.43,276.33a15.91,15.91,0,0,1,2.76-2.95,25,25,0,0,1,3.16-2.27,23.06,23.06,0,0,1,3.47-1.76,15.19,15.19,0,0,1,3.89-1.08,15.54,15.54,0,0,1-2.75,3,25.2,25.2,0,0,1-6.64,4A15.6,15.6,0,0,1,89.43,276.33Z"></path><path d="M130,222.22a41.85,41.85,0,0,1,4.06,5.52c.63.94,1.17,1.93,1.75,2.89s1.1,2,1.62,3l-2.33-.22c.7-.88,1.41-1.76,2.15-2.61s1.47-1.7,2.27-2.51a42.78,42.78,0,0,1,5-4.63,42.82,42.82,0,0,1-3.33,6c-.6,1-1.28,1.86-1.91,2.79s-1.34,1.82-2,2.7l-1.34,1.72-1-1.94c-.51-1-1-2-1.48-3s-.93-2.05-1.34-3.11A42.74,42.74,0,0,1,130,222.22Z"></path></g><path d="M101.27,215.63c-6.46,3.9-7.2,19.8-.52,21.06,5.46,1,10.25-4.05,12-7.85s1.82-9.57-1.61-12.27C108.19,214.29,103.64,214.19,101.27,215.63Z" style="fill:#fff;opacity:0.30000000000000004"></path><path d="M337.25,178c1.71,3.25,3.51,8.07,9.24,7.1s10.93-12.48,10.07-26.47,2.86-31.74,17-34.78c0,0,1.17-2.63,8.06-3.26s9,3.26,9,3.26a21.18,21.18,0,0,1,14.15,12.59c4,10.38,5.55,37.39-2.62,61.27-7.41,21.66-20.15,42.64-63.13,35.86Z" style="fill:#00CDC9"></path><g style="opacity:0.4"><path d="M337.25,178c1.71,3.25,3.51,8.07,9.24,7.1s10.93-12.48,10.07-26.47,2.86-31.74,17-34.78c0,0,1.17-2.63,8.06-3.26s9,3.26,9,3.26a21.18,21.18,0,0,1,14.15,12.59c4,10.38,5.55,37.39-2.62,61.27-7.41,21.66-20.15,42.64-63.13,35.86Z" style="fill:#fff"></path></g><path d="M390.75,123.71c5.13,3.31,7.1,9.72,8.38,15.37,3.66,17.57-1.69,35.15-5.53,52.21-4.47,19.37-16.41,33.07-37.52,32.06a66,66,0,0,1-17.35-3.22l.07-.3a100.78,100.78,0,0,0,17.28,1.11c11.45-.28,22.22-4.94,28.63-14.68,6.4-9.48,9.94-21,11.68-32.28a140.3,140.3,0,0,0,.49-34.5c-.9-5.53-2.1-11.5-6.3-15.53l.17-.24Z" style="fill:#00CDC9"></path><path d="M373.65,124c-5.41,4.68-5.8,14.45-6.89,21.13-.51,3.81-1.14,7.66-1.33,11.54-.33,7.82.7,15.75-.92,23.54-1.38,8.06-5.76,17.18-15.19,17.47a20.85,20.85,0,0,1-11.6-2.94l.13-.27a25.67,25.67,0,0,0,11.19.84c7.78-1.11,10.93-8.85,12.73-15.72a89.66,89.66,0,0,0,2.65-17.09c.19-9.77-1.41-19.84,2-29.3,1.28-3.69,3.29-7.85,7.1-9.46l.14.26Z" style="fill:#00CDC9"></path><path d="M346.43,171.83a15.62,15.62,0,0,1,3.38,2.2,25.53,25.53,0,0,1,2.78,2.72,24.65,24.65,0,0,1,2.34,3.12,15.46,15.46,0,0,1,1.73,3.64,15.62,15.62,0,0,1-3.38-2.2,24.66,24.66,0,0,1-2.78-2.72,25.57,25.57,0,0,1-2.33-3.12A15.48,15.48,0,0,1,346.43,171.83Z" style="fill:#00CDC9"></path><path d="M396.42,135.87a15.54,15.54,0,0,1,2.7-3,25.08,25.08,0,0,1,3.13-2.32,24.62,24.62,0,0,1,3.45-1.82,15.82,15.82,0,0,1,3.87-1.14,15.61,15.61,0,0,1-2.71,3,23.24,23.24,0,0,1-3.13,2.32,24.62,24.62,0,0,1-3.45,1.82A15.87,15.87,0,0,1,396.42,135.87Z" style="fill:#00CDC9"></path><path d="M346.42,226.26a15.91,15.91,0,0,1,2.76-2.95,25,25,0,0,1,6.63-4,15.72,15.72,0,0,1,3.89-1.08,15.54,15.54,0,0,1-2.75,2.95,24.71,24.71,0,0,1-3.16,2.27,25.79,25.79,0,0,1-3.48,1.76A16.05,16.05,0,0,1,346.42,226.26Z" style="fill:#00CDC9"></path><path d="M383.09,191.46a41.53,41.53,0,0,1,2.6,6.33c.38,1.07.67,2.16,1,3.24s.58,2.17.85,3.27l-2.21-.79c.89-.68,1.79-1.36,2.72-2s1.84-1.3,2.81-1.89a42.39,42.39,0,0,1,6-3.27,41.84,41.84,0,0,1-4.68,5c-.81.79-1.69,1.5-2.53,2.25s-1.74,1.43-2.63,2.13l-1.72,1.34-.48-2.13c-.25-1.09-.5-2.19-.7-3.3s-.42-2.22-.55-3.35A42.79,42.79,0,0,1,383.09,191.46Z" style="fill:#00CDC9"></path><g style="opacity:0.1"><path d="M390.75,123.71c5.13,3.31,7.1,9.72,8.38,15.37,3.66,17.57-1.69,35.15-5.53,52.21-4.47,19.37-16.41,33.07-37.52,32.06a66,66,0,0,1-17.35-3.22l.07-.3a100.78,100.78,0,0,0,17.28,1.11c11.45-.28,22.22-4.94,28.63-14.68,6.4-9.48,9.94-21,11.68-32.28a140.3,140.3,0,0,0,.49-34.5c-.9-5.53-2.1-11.5-6.3-15.53l.17-.24Z"></path><path d="M373.65,124c-5.41,4.68-5.8,14.45-6.89,21.13-.51,3.81-1.14,7.66-1.33,11.54-.33,7.82.7,15.75-.92,23.54-1.38,8.06-5.76,17.18-15.19,17.47a20.85,20.85,0,0,1-11.6-2.94l.13-.27a25.67,25.67,0,0,0,11.19.84c7.78-1.11,10.93-8.85,12.73-15.72a89.66,89.66,0,0,0,2.65-17.09c.19-9.77-1.41-19.84,2-29.3,1.28-3.69,3.29-7.85,7.1-9.46l.14.26Z"></path><path d="M346.43,171.83a15.62,15.62,0,0,1,3.38,2.2,25.53,25.53,0,0,1,2.78,2.72,24.65,24.65,0,0,1,2.34,3.12,15.46,15.46,0,0,1,1.73,3.64,15.62,15.62,0,0,1-3.38-2.2,24.66,24.66,0,0,1-2.78-2.72,25.57,25.57,0,0,1-2.33-3.12A15.48,15.48,0,0,1,346.43,171.83Z"></path><path d="M396.42,135.87a15.54,15.54,0,0,1,2.7-3,25.08,25.08,0,0,1,3.13-2.32,24.62,24.62,0,0,1,3.45-1.82,15.82,15.82,0,0,1,3.87-1.14,15.61,15.61,0,0,1-2.71,3,23.24,23.24,0,0,1-3.13,2.32,24.62,24.62,0,0,1-3.45,1.82A15.87,15.87,0,0,1,396.42,135.87Z"></path><path d="M346.42,226.26a15.91,15.91,0,0,1,2.76-2.95,25,25,0,0,1,6.63-4,15.72,15.72,0,0,1,3.89-1.08,15.54,15.54,0,0,1-2.75,2.95,24.71,24.71,0,0,1-3.16,2.27,25.79,25.79,0,0,1-3.48,1.76A16.05,16.05,0,0,1,346.42,226.26Z"></path><path d="M383.09,191.46a41.53,41.53,0,0,1,2.6,6.33c.38,1.07.67,2.16,1,3.24s.58,2.17.85,3.27l-2.21-.79c.89-.68,1.79-1.36,2.72-2s1.84-1.3,2.81-1.89a42.39,42.39,0,0,1,6-3.27,41.84,41.84,0,0,1-4.68,5c-.81.79-1.69,1.5-2.53,2.25s-1.74,1.43-2.63,2.13l-1.72,1.34-.48-2.13c-.25-1.09-.5-2.19-.7-3.3s-.42-2.22-.55-3.35A42.79,42.79,0,0,1,383.09,191.46Z"></path></g><path d="M402.18,197.68c-7.41,21.67-20.14,42.65-63.12,35.87l-.67-20.79.37-.82c26.14,13.88,47.88.47,55.87-20.36s12.06-58.22-.12-66.3a20.66,20.66,0,0,1,10.29,11.14C408.81,146.81,410.35,173.81,402.18,197.68Z" style="fill:#00CDC9;opacity:0.5"></path><path d="M366.73,150.37c4.7.94,9.47-6.89,7.56-11.5s-7.63-3.29-9.84-.22S362.5,149.53,366.73,150.37Z" style="fill:#fff;opacity:0.30000000000000004"></path><path d="M182.36,388.39H318.84S360.29,193,327.07,124.6c-19.47-40.11-42.43-38.82-42.43-38.82s-13-12.33-37.83-12.17-36,13.16-36,13.16S183.17,97,173.47,114.23,140.8,211.59,182.36,388.39Z" style="fill:#00CDC9"></path><path d="M182.36,388.39H318.84S360.29,193,327.07,124.6c-19.47-40.11-42.43-38.82-42.43-38.82s-13-12.33-37.83-12.17-36,13.16-36,13.16S183.17,97,173.47,114.23,140.8,211.59,182.36,388.39Z" style="fill:#fff;opacity:0.4"></path><path d="M318.84,388.38H182.36s81.06-7.33,105.9-31.9C319.5,325.57,333,176.24,316.55,129.86c-13.47-38-31.91-44.07-31.91-44.07s23-1.3,42.43,38.8C360.3,193,318.84,388.38,318.84,388.38Z" style="fill:#00CDC9;opacity:0.5"></path><path d="M210.92,86.86c-14.6,21.31-18,47.38-20.82,72.43A389.47,389.47,0,0,0,188,216.64c2.46,57.33,9.05,114.62,14.49,171.73-9.23-49.54-13.88-101.64-15.55-152.53q-.36-19.18-.1-38.36c.4-31.77-.18-65.08,13.52-94.54a79.88,79.88,0,0,1,10.29-16.26l.24.18Z" style="fill:#00CDC9"></path><path d="M284.76,85.69c26.71,31.23,28.87,71,29.23,110.16a1080.38,1080.38,0,0,1-15,192.52c4.54-51.31,9.66-102.53,12.86-153.93.71-12.85,1.4-25.71,1.24-38.58-.45-25.6-3.6-51.38-11.27-75.84a127.15,127.15,0,0,0-12.06-26c-1.66-2.74-3.44-5.42-5.22-8.11l.24-.18Z" style="fill:#00CDC9"></path><path d="M266.44,79.72c8.09,4.1,14.05,11.84,17.42,20.16a106.7,106.7,0,0,1,3.71,12.93l3.23,13a164.9,164.9,0,0,1,4,26.43,198.25,198.25,0,0,1,0,26.7h-.3c-1.82-12.73-2.93-26.83-4-39.66-.95-8.76-1.3-17.71-3.87-26.19a95.14,95.14,0,0,0-11.56-23.42,55.69,55.69,0,0,0-8.8-9.68l.16-.25Z" style="fill:#00CDC9"></path><path d="M218.65,138a47.43,47.43,0,0,1-.48,12.43c-.41,2-1.08,4-1.35,6.1-.6,4.12.17,8.3,0,12.44a70.54,70.54,0,0,1-2.13,18.54h-.3a59.9,59.9,0,0,1-.93-12.49A75.05,75.05,0,0,1,215,162.62a37,37,0,0,0,.83-6.17c0-4.16-.46-8.37.63-12.47a32.3,32.3,0,0,1,1.87-6l.3.05Z" style="fill:#00CDC9"></path><path d="M283.74,87.25a41.66,41.66,0,0,1,1.42,6.7c.19,1.11.27,2.24.41,3.36s.18,2.25.24,3.37l-2-1.17c1-.51,2-1,3-1.49s2-.94,3.1-1.34a43,43,0,0,1,6.5-2.15,41.17,41.17,0,0,1-5.5,4.08c-.94.63-1.93,1.17-2.89,1.76s-2,1.09-3,1.62l-1.93,1-.1-2.18c0-1.13-.09-2.25-.09-3.38s0-2.25.06-3.39A42.72,42.72,0,0,1,283.74,87.25Z" style="fill:#00CDC9"></path><path d="M172.61,182.14a42.83,42.83,0,0,1,6.83-.53c1.13,0,2.25,0,3.38,0s2.25.12,3.38.2l-1.43,1.86c-.37-1.06-.74-2.13-1.07-3.2s-.67-2.16-.93-3.26a42.55,42.55,0,0,1-1.27-6.73,43,43,0,0,1,3.32,6c.5,1,.9,2.07,1.36,3.1s.83,2.1,1.21,3.16l.75,2-2.17-.19c-1.12-.1-2.24-.21-3.36-.36s-2.24-.28-3.35-.5A43.86,43.86,0,0,1,172.61,182.14Z" style="fill:#00CDC9"></path><path d="M198.39,78.1a42,42,0,0,1,6.32,2.62c1,.48,2,1,3,1.57s2,1.12,2.92,1.71l-2.11,1c.14-1.12.3-2.23.49-3.34s.38-2.23.65-3.33a42.33,42.33,0,0,1,1.91-6.57,41.38,41.38,0,0,1,.24,6.84c0,1.13-.12,2.25-.18,3.38s-.21,2.24-.35,3.36L211,87.52l-1.85-1.15c-.95-.6-1.9-1.2-2.83-1.84s-1.87-1.27-2.76-2A42.65,42.65,0,0,1,198.39,78.1Z" style="fill:#00CDC9"></path><path d="M205.37,114.94a16,16,0,0,1,3.5,2,25.68,25.68,0,0,1,2.92,2.57,23.86,23.86,0,0,1,2.5,3,15.12,15.12,0,0,1,1.93,3.55,15.7,15.7,0,0,1-3.49-2,24,24,0,0,1-2.93-2.57,25.71,25.71,0,0,1-2.5-3A16,16,0,0,1,205.37,114.94Z" style="fill:#00CDC9"></path><path d="M320.25,165a15.61,15.61,0,0,1,2.71-3,23.53,23.53,0,0,1,3.13-2.33,24,24,0,0,1,3.44-1.81,15.11,15.11,0,0,1,3.87-1.14,15.25,15.25,0,0,1-2.7,3,25.84,25.84,0,0,1-3.13,2.32,24.62,24.62,0,0,1-3.45,1.81A15.83,15.83,0,0,1,320.25,165Z" style="fill:#00CDC9"></path><path d="M286.62,308.77A16,16,0,0,1,290,311a25.53,25.53,0,0,1,2.78,2.72,24,24,0,0,1,2.34,3.12,15.27,15.27,0,0,1,1.73,3.64,15.62,15.62,0,0,1-3.38-2.2,25.48,25.48,0,0,1-5.11-5.85A15.3,15.3,0,0,1,286.62,308.77Z" style="fill:#00CDC9"></path><path d="M290.42,304.91a15.93,15.93,0,0,1,4,.65,25.72,25.72,0,0,1,7,3.29,15.37,15.37,0,0,1,3.05,2.64,15.56,15.56,0,0,1-4-.65,25.27,25.27,0,0,1-3.64-1.38,23.62,23.62,0,0,1-3.39-1.92A16,16,0,0,1,290.42,304.91Z" style="fill:#00CDC9"></path><path d="M180,355.14a16.08,16.08,0,0,1-3.8,1.37,25.37,25.37,0,0,1-3.85.57,24.19,24.19,0,0,1-3.9,0,15.72,15.72,0,0,1-3.95-.82,15.65,15.65,0,0,1,3.8-1.37,24,24,0,0,1,3.85-.57,25.4,25.4,0,0,1,3.9,0A15.78,15.78,0,0,1,180,355.14Z" style="fill:#00CDC9"></path><path d="M180.76,360.51a16.23,16.23,0,0,1-2.93,2.77,25.53,25.53,0,0,1-6.87,3.63,15.66,15.66,0,0,1-4,.84,16,16,0,0,1,2.93-2.78,25.18,25.18,0,0,1,3.29-2.07,26.49,26.49,0,0,1,3.58-1.55A16.11,16.11,0,0,1,180.76,360.51Z" style="fill:#00CDC9"></path><path d="M165.09,274.89a15.86,15.86,0,0,1,2.75-2.95,26,26,0,0,1,6.64-4,16,16,0,0,1,3.89-1.08,15.93,15.93,0,0,1-2.75,3,25.64,25.64,0,0,1-6.64,4A16,16,0,0,1,165.09,274.89Z" style="fill:#00CDC9"></path><path d="M333.1,238.94a16.07,16.07,0,0,1,4,.34A25.92,25.92,0,0,1,344.4,242a15.78,15.78,0,0,1,3.25,2.39,16,16,0,0,1-4-.33,26.3,26.3,0,0,1-3.74-1.08,26.94,26.94,0,0,1-3.54-1.64A16.16,16.16,0,0,1,333.1,238.94Z" style="fill:#00CDC9"></path><path d="M307.31,252.52a41.53,41.53,0,0,1,2.6,6.33c.38,1.06.67,2.15,1,3.23s.58,2.18.85,3.27l-2.21-.78c.89-.68,1.79-1.36,2.72-2s1.84-1.29,2.81-1.88a42.45,42.45,0,0,1,6-3.28,41.19,41.19,0,0,1-4.68,5c-.81.79-1.68,1.5-2.53,2.25s-1.74,1.43-2.63,2.12l-1.72,1.35-.48-2.13c-.25-1.1-.5-2.2-.7-3.31s-.41-2.21-.55-3.34A42.79,42.79,0,0,1,307.31,252.52Z" style="fill:#00CDC9"></path><path d="M210,331.32a42.24,42.24,0,0,1,5.81,3.61c.94.64,1.81,1.36,2.71,2s1.74,1.43,2.6,2.16l-2.25.66c.33-1.08.66-2.16,1-3.22s.74-2.13,1.18-3.18a43.57,43.57,0,0,1,3-6.17,42.16,42.16,0,0,1-.87,6.79c-.2,1.12-.5,2.2-.74,3.31s-.57,2.18-.89,3.26l-.61,2.09-1.64-1.44c-.84-.74-1.68-1.49-2.5-2.27s-1.63-1.56-2.4-2.39A44.71,44.71,0,0,1,210,331.32Z" style="fill:#00CDC9"></path><path d="M213.09,231q2.07,19.73,2.72,39.52c.15,6.6.09,13.21.42,19.81.62,13.19,2.72,26.26,4.15,39.37,2.55,19.6,4.34,39.28,8.49,58.64l-.29.09c-1.06-3.13-2.24-6.26-3.11-9.45-5.24-19.2-7.34-39.08-8.64-58.89-.55-9.9-.75-19.82-1.58-29.7-.48-5.55-1.41-14.14-1.93-19.74-.52-6.59-.74-13.2-.85-19.81s0-13.22.32-19.84Z" style="fill:#00CDC9"></path><g style="opacity:0.1"><path d="M210.92,86.86c-14.6,21.31-18,47.38-20.82,72.43A389.47,389.47,0,0,0,188,216.64c2.46,57.33,9.05,114.62,14.49,171.73-9.23-49.54-13.88-101.64-15.55-152.53q-.36-19.18-.1-38.36c.4-31.77-.18-65.08,13.52-94.54a79.88,79.88,0,0,1,10.29-16.26l.24.18Z"></path><path d="M284.76,85.69c26.71,31.23,28.87,71,29.23,110.16a1080.38,1080.38,0,0,1-15,192.52c4.54-51.31,9.66-102.53,12.86-153.93.71-12.85,1.4-25.71,1.24-38.58-.45-25.6-3.6-51.38-11.27-75.84a127.15,127.15,0,0,0-12.06-26c-1.66-2.74-3.44-5.42-5.22-8.11l.24-.18Z"></path><path d="M266.44,79.72c8.09,4.1,14.05,11.84,17.42,20.16a106.7,106.7,0,0,1,3.71,12.93l3.23,13a164.9,164.9,0,0,1,4,26.43,198.25,198.25,0,0,1,0,26.7h-.3c-1.82-12.73-2.93-26.83-4-39.66-.95-8.76-1.3-17.71-3.87-26.19a95.14,95.14,0,0,0-11.56-23.42,55.69,55.69,0,0,0-8.8-9.68l.16-.25Z"></path><path d="M218.65,138a47.43,47.43,0,0,1-.48,12.43c-.41,2-1.08,4-1.35,6.1-.6,4.12.17,8.3,0,12.44a70.54,70.54,0,0,1-2.13,18.54h-.3a59.9,59.9,0,0,1-.93-12.49A75.05,75.05,0,0,1,215,162.62a37,37,0,0,0,.83-6.17c0-4.16-.46-8.37.63-12.47a32.3,32.3,0,0,1,1.87-6l.3.05Z"></path><path d="M283.74,87.25a41.66,41.66,0,0,1,1.42,6.7c.19,1.11.27,2.24.41,3.36s.18,2.25.24,3.37l-2-1.17c1-.51,2-1,3-1.49s2-.94,3.1-1.34a43,43,0,0,1,6.5-2.15,41.17,41.17,0,0,1-5.5,4.08c-.94.63-1.93,1.17-2.89,1.76s-2,1.09-3,1.62l-1.93,1-.1-2.18c0-1.13-.09-2.25-.09-3.38s0-2.25.06-3.39A42.72,42.72,0,0,1,283.74,87.25Z"></path><path d="M172.61,182.14a42.83,42.83,0,0,1,6.83-.53c1.13,0,2.25,0,3.38,0s2.25.12,3.38.2l-1.43,1.86c-.37-1.06-.74-2.13-1.07-3.2s-.67-2.16-.93-3.26a42.55,42.55,0,0,1-1.27-6.73,43,43,0,0,1,3.32,6c.5,1,.9,2.07,1.36,3.1s.83,2.1,1.21,3.16l.75,2-2.17-.19c-1.12-.1-2.24-.21-3.36-.36s-2.24-.28-3.35-.5A43.86,43.86,0,0,1,172.61,182.14Z"></path><path d="M198.39,78.1a42,42,0,0,1,6.32,2.62c1,.48,2,1,3,1.57s2,1.12,2.92,1.71l-2.11,1c.14-1.12.3-2.23.49-3.34s.38-2.23.65-3.33a42.33,42.33,0,0,1,1.91-6.57,41.38,41.38,0,0,1,.24,6.84c0,1.13-.12,2.25-.18,3.38s-.21,2.24-.35,3.36L211,87.52l-1.85-1.15c-.95-.6-1.9-1.2-2.83-1.84s-1.87-1.27-2.76-2A42.65,42.65,0,0,1,198.39,78.1Z"></path><path d="M205.37,114.94a16,16,0,0,1,3.5,2,25.68,25.68,0,0,1,2.92,2.57,23.86,23.86,0,0,1,2.5,3,15.12,15.12,0,0,1,1.93,3.55,15.7,15.7,0,0,1-3.49-2,24,24,0,0,1-2.93-2.57,25.71,25.71,0,0,1-2.5-3A16,16,0,0,1,205.37,114.94Z"></path><path d="M320.25,165a15.61,15.61,0,0,1,2.71-3,23.53,23.53,0,0,1,3.13-2.33,24,24,0,0,1,3.44-1.81,15.11,15.11,0,0,1,3.87-1.14,15.25,15.25,0,0,1-2.7,3,25.84,25.84,0,0,1-3.13,2.32,24.62,24.62,0,0,1-3.45,1.81A15.83,15.83,0,0,1,320.25,165Z"></path><path d="M286.62,308.77A16,16,0,0,1,290,311a25.53,25.53,0,0,1,2.78,2.72,24,24,0,0,1,2.34,3.12,15.27,15.27,0,0,1,1.73,3.64,15.62,15.62,0,0,1-3.38-2.2,25.48,25.48,0,0,1-5.11-5.85A15.3,15.3,0,0,1,286.62,308.77Z"></path><path d="M290.42,304.91a15.93,15.93,0,0,1,4,.65,25.72,25.72,0,0,1,7,3.29,15.37,15.37,0,0,1,3.05,2.64,15.56,15.56,0,0,1-4-.65,25.27,25.27,0,0,1-3.64-1.38,23.62,23.62,0,0,1-3.39-1.92A16,16,0,0,1,290.42,304.91Z"></path><path d="M180,355.14a16.08,16.08,0,0,1-3.8,1.37,25.37,25.37,0,0,1-3.85.57,24.19,24.19,0,0,1-3.9,0,15.72,15.72,0,0,1-3.95-.82,15.65,15.65,0,0,1,3.8-1.37,24,24,0,0,1,3.85-.57,25.4,25.4,0,0,1,3.9,0A15.78,15.78,0,0,1,180,355.14Z"></path><path d="M180.76,360.51a16.23,16.23,0,0,1-2.93,2.77,25.53,25.53,0,0,1-6.87,3.63,15.66,15.66,0,0,1-4,.84,16,16,0,0,1,2.93-2.78,25.18,25.18,0,0,1,3.29-2.07,26.49,26.49,0,0,1,3.58-1.55A16.11,16.11,0,0,1,180.76,360.51Z"></path><path d="M165.09,274.89a15.86,15.86,0,0,1,2.75-2.95,26,26,0,0,1,6.64-4,16,16,0,0,1,3.89-1.08,15.93,15.93,0,0,1-2.75,3,25.64,25.64,0,0,1-6.64,4A16,16,0,0,1,165.09,274.89Z"></path><path d="M333.1,238.94a16.07,16.07,0,0,1,4,.34A25.92,25.92,0,0,1,344.4,242a15.78,15.78,0,0,1,3.25,2.39,16,16,0,0,1-4-.33,26.3,26.3,0,0,1-3.74-1.08,26.94,26.94,0,0,1-3.54-1.64A16.16,16.16,0,0,1,333.1,238.94Z"></path><path d="M307.31,252.52a41.53,41.53,0,0,1,2.6,6.33c.38,1.06.67,2.15,1,3.23s.58,2.18.85,3.27l-2.21-.78c.89-.68,1.79-1.36,2.72-2s1.84-1.29,2.81-1.88a42.45,42.45,0,0,1,6-3.28,41.19,41.19,0,0,1-4.68,5c-.81.79-1.68,1.5-2.53,2.25s-1.74,1.43-2.63,2.12l-1.72,1.35-.48-2.13c-.25-1.1-.5-2.2-.7-3.31s-.41-2.21-.55-3.34A42.79,42.79,0,0,1,307.31,252.52Z"></path><path d="M210,331.32a42.24,42.24,0,0,1,5.81,3.61c.94.64,1.81,1.36,2.71,2s1.74,1.43,2.6,2.16l-2.25.66c.33-1.08.66-2.16,1-3.22s.74-2.13,1.18-3.18a43.57,43.57,0,0,1,3-6.17,42.16,42.16,0,0,1-.87,6.79c-.2,1.12-.5,2.2-.74,3.31s-.57,2.18-.89,3.26l-.61,2.09-1.64-1.44c-.84-.74-1.68-1.49-2.5-2.27s-1.63-1.56-2.4-2.39A44.71,44.71,0,0,1,210,331.32Z"></path><path d="M213.09,231q2.07,19.73,2.72,39.52c.15,6.6.09,13.21.42,19.81.62,13.19,2.72,26.26,4.15,39.37,2.55,19.6,4.34,39.28,8.49,58.64l-.29.09c-1.06-3.13-2.24-6.26-3.11-9.45-5.24-19.2-7.34-39.08-8.64-58.89-.55-9.9-.75-19.82-1.58-29.7-.48-5.55-1.41-14.14-1.93-19.74-.52-6.59-.74-13.2-.85-19.81s0-13.22.32-19.84Z"></path></g><path d="M205.89,199.26c-6.91,0-12.13,5.59-11.93,13a11.52,11.52,0,0,0,11.93,11.68c6.94,0,11.88-5.88,11.88-12.34S213,199.26,205.89,199.26Z" style="fill:#263238"></path><path d="M217.7,210.31c0-.26-.58.22-.63.49-1.06,6.69-2.9,14.18-9.34,15.24-.2,0-.24.37,0,.38C215.26,226.79,218.29,216.12,217.7,210.31Z" style="fill:#263238"></path><path d="M291.64,199.26c6.9,0,12.13,5.59,11.92,13a11.51,11.51,0,0,1-11.92,11.68c-6.95,0-11.89-5.88-11.89-12.34S284.48,199.26,291.64,199.26Z" style="fill:#263238"></path><path d="M279.83,210.31c0-.26.58.22.62.49,1.06,6.69,2.9,14.18,9.34,15.24.2,0,.25.37,0,.38C282.26,226.79,279.24,216.12,279.83,210.31Z" style="fill:#263238"></path><path d="M235.58,207.19A56.66,56.66,0,0,1,264.42,206c-9.68-.1-19.17.47-28.84,1.23Z" style="fill:#00CDC9"></path><path d="M242.62,201.86a17.65,17.65,0,0,1,13.26,1.57,95.73,95.73,0,0,1-13.26-1.57Z" style="fill:#00CDC9"></path><path d="M227.47,212.89c-1.44,2.05-2.48,5.37-1.54,7.69,2.38,3.83,11.3-.77,14.49-2.26,2.23-1,5.22-2.81,7.55-3.56,1.29-.36,2.48.37,3.53.84,4.24,2.09,8.89,4.87,13.42,6.05,8.33,1.7,8.36-2.92,4.44-8.76,6.58,6.22,4.41,12.31-4.91,11-5.76-.94-10.55-4.18-15.8-6.28-6,2.39-12.85,7-20,6.31-6.3-.76-4.58-8-1.14-11.07Z" style="fill:#263238"></path><g style="opacity:0.30000000000000004"><path d="M185.32,111.89c-8.15,4.93-9.08,25-.65,26.59,6.9,1.3,12.94-5.11,15.08-9.91s2.3-12.08-2-15.49C194.06,110.2,188.31,110.08,185.32,111.89Z" style="fill:#fff"></path><path d="M210.47,103.12c-.39-3.36-6.68-4.86-9.36-2.58s-1,7.3,1.55,8.12S210.83,106.14,210.47,103.12Z" style="fill:#fff"></path></g><polygon points="170.06 365.58 173.97 392.63 185.93 475.14 314.07 475.14 326.03 392.63 329.94 365.58 170.06 365.58" style="fill:#00CDC9"></polygon><polygon points="170.06 365.58 173.97 392.63 185.93 475.14 314.07 475.14 326.03 392.63 329.94 365.58 170.06 365.58" style="opacity:0.4"></polygon><polygon points="170.06 365.58 173.97 392.63 326.88 386.73 329.94 365.58 170.06 365.58" style="opacity:0.1"></polygon><polygon points="325.38 397.09 324.22 405.12 175.78 405.12 174.61 397.09 325.38 397.09" style="fill:#00CDC9"></polygon><polygon points="317.31 452.83 316.14 460.86 183.87 460.86 182.7 452.83 317.31 452.83" style="fill:#00CDC9"></polygon><path d="M323.16,412.41l-28.27,16.43,23.88,13.88L320,434l-8.88-5.16,10.51-6.1Z" style="fill:#37474f"></path><polygon points="321.66 422.74 320.03 434 311.15 428.84 321.66 422.74" style="fill:#00CDC9"></polygon><path d="M250.12,412.3l-28.46,16.54,28.46,16.54,28.47-16.54Zm-12.2,16.54,12.2-7.08,12.2,7.08-12.2,7.09Z" style="fill:#37474f"></path><polygon points="262.32 428.85 250.12 435.93 237.92 428.85 250.12 421.76 262.32 428.85" style="fill:#00CDC9"></polygon><path d="M176.89,412.3l-.06,0,1.48,10.25,10.78,6.25L180,434.13l1.27,8.72,24.11-14Z" style="fill:#37474f"></path><polygon points="189.09 428.84 179.98 434.13 178.31 422.59 189.09 428.84" style="fill:#00CDC9"></polygon><polygon points="225.71 416.06 213.5 423.15 201.31 416.06 213.5 408.97 225.71 416.06" style="fill:#00CDC9"></polygon><polygon points="298.94 416.06 286.74 423.15 274.54 416.06 286.74 408.97 298.94 416.06" style="fill:#00CDC9"></polygon><polygon points="225.71 441.63 213.5 448.72 201.31 441.63 213.5 434.54 225.71 441.63" style="fill:#00CDC9"></polygon><polygon points="298.94 441.63 286.74 448.72 274.54 441.63 286.74 434.54 298.94 441.63" style="fill:#00CDC9"></polygon><rect x="162.19" y="353.19" width="175.63" height="29.61" transform="translate(500 735.99) rotate(180)" style="fill:#00CDC9"></rect><rect x="162.19" y="353.19" width="175.63" height="29.61" transform="translate(500 735.99) rotate(180)" style="opacity:0.4"></rect></g><g id="freepik--Floor--inject-532"><path d="M66.66,475.14c117.46-.61,249.22-.61,366.68,0-117.46.62-249.22.62-366.68,0Z" style="fill:#263238"></path></g><g id="freepik--Hearts--inject-532"><path d="M145.18,183.42s-26.28-10.16-37.69-22.06S94.78,135.87,99.18,133c7.09-4.66,21.88,17.78,21.88,17.78s-11.73-32.74,2.18-35.56c11.45-2.32,13.16,35.73,17.13,51.34C142.78,176.05,145.18,183.42,145.18,183.42Z" style="fill:#00CDC9"></path><path d="M149.62,119.06s-8.2-15.81-9.26-27.86S143,71.38,146.8,71.6c5.29.3,4,17.69,4,17.69S157.38,69.1,164,72.66c7.56,4.07-4.45,23.79-9.36,34.54C151.63,113.75,149.62,119.06,149.62,119.06Z" style="fill:#00CDC9"></path><path d="M341.76,123.09s8.83-8.29,12.85-14.78c4.2-6.8,3.65-11.35,1.33-12.1-3.33-1.07-8.47,9-8.47,9s1.57-12.78-3-11.69c-5.27,1.25-5.8,12.53-4,21.52C341.38,119.44,341.76,123.09,341.76,123.09Z" style="fill:#00CDC9"></path></g></svg>
