<svg xmlns="http://www.w3.org/2000/svg" xmlns:xlink="http://www.w3.org/1999/xlink" width="500" zoomAndPan="magnify" viewBox="0 0 375 374.999991" height="500" preserveAspectRatio="xMidYMid meet" version="1.0"><defs><clipPath id="ecbaddbfa9"><path d="M 34.433594 0 L 340.433594 0 L 340.433594 367.5 L 34.433594 367.5 Z M 34.433594 0 " clip-rule="nonzero"/></clipPath></defs><g clip-path="url(#ecbaddbfa9)"><path fill="#00fefb" d="M 34.433594 237.503906 C 34.433594 202.652344 43.851562 174.394531 58.921875 152.730469 C 58.921875 195.589844 69.285156 210.660156 91.890625 210.660156 C 106.960938 210.660156 122.503906 199.355469 122.503906 180.046875 C 122.503906 162.621094 110.730469 131.066406 110.730469 97.15625 C 110.730469 63.246094 122.03125 26.980469 168.1875 0.136719 C 157.824219 27.453125 153.585938 50.53125 153.585938 69.371094 C 153.585938 119.292969 183.730469 141.898438 210.574219 141.898438 C 232.238281 141.898438 254.84375 127.769531 254.84375 86.796875 C 269.445312 102.808594 276.039062 121.175781 276.039062 139.542969 C 276.039062 168.742188 260.023438 194.648438 260.023438 218.195312 C 260.023438 237.503906 275.566406 248.808594 290.636719 248.808594 C 317.484375 248.808594 325.488281 224.789062 325.488281 185.226562 C 333.496094 198.886719 340.5625 225.730469 340.5625 248.808594 C 340.5625 317.570312 275.566406 367.492188 203.039062 367.492188 C 264.265625 344.414062 275.566406 313.800781 275.566406 279.421875 C 260.496094 306.265625 244.953125 310.035156 237.417969 310.035156 C 191.265625 310.035156 241.1875 221.960938 160.652344 160.738281 C 173.839844 188.996094 179.019531 213.484375 179.019531 233.265625 C 179.019531 275.652344 155.941406 298.730469 133.804688 298.730469 C 114.96875 298.730469 96.128906 283.660156 88.59375 251.632812 C 88.59375 296.375 101.78125 338.761719 160.652344 367.492188 C 68.8125 352.421875 34.433594 294.960938 34.433594 237.503906 Z M 34.433594 237.503906 " fill-opacity="1" fill-rule="nonzero"/></g></svg>